<?xml version="1.0" standalone="no"?>
<!DOCTYPE svg PUBLIC "-//W3C//DTD SVG 20010904//EN"
 "http://www.w3.org/TR/2001/REC-SVG-20010904/DTD/svg10.dtd">
<svg version="1.0" xmlns="http://www.w3.org/2000/svg"
 width="500.000000pt" height="500.000000pt" viewBox="0 0 500.000000 500.000000"
 preserveAspectRatio="xMidYMid meet">
<metadata>
Created by potrace 1.11, written by Peter Selinger 2001-2013
</metadata>
<g transform="translate(0.000000,500.000000) scale(0.100000,-0.100000)"
fill="#000000" stroke="none">
<path d="M3152 4038 c-192 -255 -461 -481 -753 -632 -58 -30 -123 -58 -143
-61 -46 -9 -51 -27 -36 -134 18 -131 64 -261 121 -342 l18 -26 -69 -47 c-38
-26 -105 -85 -148 -131 -244 -258 -251 -572 -14 -677 132 -59 327 36 416 201
69 128 16 248 -106 244 -70 -3 -83 -33 -14 -33 29 0 52 -7 70 -21 22 -17 26
-28 26 -72 -1 -134 -135 -290 -255 -297 -71 -5 -90 -1 -133 27 -130 85 -129
315 2 512 53 79 145 176 212 222 l44 30 51 -41 c95 -75 205 -87 318 -35 29 14
55 25 58 25 3 0 3 -35 0 -77 -14 -176 -137 -530 -281 -809 -34 -66 -60 -126
-58 -132 5 -16 74 -15 94 1 9 6 65 118 125 247 114 246 191 385 298 535 101
142 169 212 217 227 39 11 42 11 64 -16 30 -34 30 -59 4 -213 -36 -210 -103
-406 -206 -600 -62 -117 -66 -140 -27 -149 45 -12 73 14 124 113 158 303 407
647 541 748 69 52 101 63 124 44 28 -23 9 -92 -86 -304 -146 -327 -179 -455
-147 -566 26 -88 99 -142 197 -143 73 -1 76 17 4 25 -73 8 -100 35 -116 112
-10 45 -9 73 0 129 19 109 82 289 166 471 90 195 104 242 87 298 -32 107 -170
61 -333 -109 -60 -63 -248 -303 -330 -422 -13 -19 -11 -6 8 50 40 121 83 289
94 372 14 97 2 146 -42 183 -28 23 -38 26 -75 21 -124 -17 -243 -139 -404
-415 -44 -75 -48 -71 -18 15 53 153 73 310 50 391 -8 27 -6 35 14 53 27 26 51
77 40 88 -4 4 -12 -2 -19 -12 -6 -10 -21 -31 -34 -45 l-22 -26 -21 28 c-57 74
-194 94 -337 48 -71 -23 -73 -23 -87 -5 -39 51 -115 290 -115 360 l0 41 70 26
c217 80 574 369 757 611 88 116 112 161 96 177 -8 8 -31 -15 -81 -83z m-412
-1152 c22 -10 70 -69 70 -86 0 -18 -113 -42 -178 -38 -55 3 -75 9 -109 33 -58
41 -60 53 -15 72 88 39 174 46 232 19z"/>
<path d="M2477 4028 c-18 -18 -40 -43 -48 -56 -15 -20 -28 -23 -150 -32 -263
-21 -406 -55 -514 -125 -163 -104 -214 -299 -108 -416 64 -71 123 -89 208 -65
64 19 111 62 143 129 23 50 29 116 12 148 -18 32 -26 22 -26 -34 0 -72 -27
-138 -75 -181 -38 -35 -61 -42 -129 -36 -64 5 -100 63 -100 162 0 157 128 291
327 342 67 18 321 49 352 44 18 -3 15 -13 -34 -118 -29 -63 -92 -199 -139
-303 -178 -394 -348 -576 -622 -668 -175 -59 -361 -28 -471 80 -58 55 -75 94
-81 177 -7 104 16 163 89 236 49 50 54 58 35 58 -26 0 -85 -42 -116 -82 -44
-57 -65 -187 -44 -273 23 -98 110 -196 218 -246 222 -104 500 -63 706 104 135
110 260 331 375 667 37 107 86 237 110 288 37 78 47 92 67 92 13 0 47 12 76
26 80 40 85 106 8 112 -31 3 -42 -2 -69 -30z m83 -15 c-1 -23 -44 -53 -76 -53
-14 0 -12 6 11 30 26 27 65 41 65 23z"/>
<path d="M2210 1270 c0 -5 7 -10 15 -10 8 0 15 5 15 10 0 6 -7 10 -15 10 -8 0
-15 -4 -15 -10z"/>
<path d="M2111 1242 c-6 -11 -7 -22 -4 -26 9 -9 -10 -7 -26 3 -11 7 -10 11 5
20 18 10 18 10 -3 11 -13 0 -23 -6 -23 -12 0 -7 -11 -13 -24 -13 -13 0 -22 4
-19 8 3 5 -5 7 -18 5 -15 -2 -23 -9 -21 -18 2 -12 -1 -11 -11 2 -9 11 -18 14
-28 7 -8 -5 -27 -9 -44 -10 -30 -2 -30 -2 5 -9 l35 -7 -41 -2 c-31 -1 -44 3
-49 17 -6 15 -7 15 -15 1 -6 -10 -24 -16 -50 -17 -23 -1 -48 -9 -56 -17 -9 -8
-20 -13 -25 -9 -5 3 -21 -3 -37 -14 -15 -10 -37 -22 -50 -25 -20 -5 -21 -3
-10 11 11 14 10 15 -12 9 -14 -4 -29 -7 -33 -7 -5 0 -5 -5 -2 -10 8 -13 -7
-18 -67 -24 -26 -2 -50 0 -54 5 -3 6 -16 -1 -29 -16 -24 -25 -42 -34 -30 -15
3 5 0 7 -9 4 -8 -3 -16 -13 -18 -21 -2 -11 -19 -17 -58 -20 -75 -5 -76 -6 -85
-49 -5 -27 -9 -34 -15 -24 -5 8 -7 17 -5 20 2 4 -12 6 -33 4 -20 -1 -38 -7
-40 -13 -2 -6 -12 -11 -23 -11 -10 0 -28 -9 -40 -21 -11 -11 -28 -19 -38 -17
-9 2 -30 -10 -45 -26 -29 -32 -66 -44 -66 -22 0 7 -6 18 -13 24 -10 8 -16 6
-25 -9 -7 -11 -17 -17 -23 -13 -6 3 -13 -4 -16 -15 -4 -17 -8 -19 -19 -10 -8
6 -20 9 -28 6 -8 -3 -16 -1 -18 5 -2 6 -10 -3 -17 -20 -13 -31 -31 -43 -31
-21 0 8 -4 9 -13 0 -8 -6 -17 -8 -20 -4 -4 3 -13 0 -21 -6 -8 -7 -20 -10 -26
-6 -6 4 -23 -1 -38 -11 -15 -10 -30 -17 -35 -16 -4 1 -13 -9 -19 -23 -11 -24
-13 -24 -34 -10 -21 14 -24 13 -43 -11 -14 -17 -31 -26 -56 -27 -20 -2 -39 -7
-43 -13 -12 -17 -37 -10 -40 13 -2 14 -8 20 -18 16 -8 -3 -14 1 -14 11 0 23
-27 20 -35 -4 -6 -20 -16 -25 -28 -13 -4 3 -2 12 4 20 9 10 8 13 -5 13 -9 0
-16 -8 -16 -18 0 -14 -8 -18 -34 -18 -19 0 -33 3 -31 7 3 3 -7 4 -20 1 -20 -3
-25 0 -25 17 0 14 -5 19 -14 15 -8 -3 -12 -13 -10 -22 5 -16 5 -16 -5 0 -7 10
-19 14 -33 10 -16 -4 -19 -2 -13 9 8 12 6 12 -8 0 -15 -12 -17 -49 -17 -392
l0 -379 2143 1 c1178 1 2134 3 2124 6 -10 3 -16 10 -14 16 6 19 35 20 53 2 9
-9 19 -13 23 -10 3 4 -6 17 -21 29 -16 12 -28 27 -28 33 0 6 -7 13 -15 17 -11
4 -15 -1 -15 -17 0 -18 -2 -19 -10 -7 -5 8 -7 22 -4 32 2 9 0 19 -6 23 -5 3
-10 -2 -10 -12 -1 -15 -5 -13 -25 9 -15 18 -25 23 -28 15 -4 -9 -6 -9 -6 0 -2
23 -44 63 -67 63 -18 0 -21 -4 -17 -22 5 -23 5 -23 -10 -3 -9 11 -17 28 -17
37 0 27 -11 48 -22 42 -5 -3 -9 0 -7 7 3 24 -1 39 -9 37 -9 -3 -72 65 -72 77
0 3 -6 13 -14 21 -19 19 -30 1 -16 -26 6 -11 7 -20 2 -20 -12 0 -37 30 -26 30
5 0 1 6 -8 14 -9 7 -21 31 -26 54 -6 23 -20 53 -33 67 -24 24 -46 34 -34 15 3
-5 -2 -10 -11 -10 -14 0 -15 -3 -6 -12 15 -15 16 -32 2 -23 -5 3 -10 -1 -10
-9 0 -9 4 -16 10 -16 5 0 6 -8 3 -17 -4 -11 -8 -12 -11 -5 -2 7 -11 12 -20 12
-12 0 -13 3 -4 12 15 15 16 62 2 53 -7 -4 -9 2 -4 19 3 14 2 26 -3 26 -5 0
-16 11 -23 25 -8 14 -19 24 -26 21 -13 -5 -28 20 -26 44 1 8 -6 -1 -14 -20
-14 -31 -14 -35 0 -46 15 -10 15 -12 1 -18 -8 -3 -15 -13 -15 -23 0 -11 -5 -7
-14 12 -24 54 -37 105 -31 115 3 6 -1 13 -9 16 -9 3 -16 12 -16 20 0 24 -20
15 -21 -8 -1 -13 -1 -26 0 -30 0 -5 -3 -8 -8 -8 -5 0 -12 19 -16 43 -10 62
-15 78 -26 72 -5 -4 -9 -14 -9 -25 0 -10 -6 -20 -14 -23 -15 -6 -36 32 -36 66
0 25 -26 67 -40 67 -5 0 -6 -7 -3 -17 4 -10 2 -14 -4 -10 -6 4 -14 21 -17 39
-7 35 -30 56 -86 78 -19 8 -52 24 -72 37 -21 13 -42 23 -48 23 -5 0 -10 3 -10
8 0 10 -51 32 -61 26 -5 -3 -6 1 -3 9 3 8 -2 14 -11 14 -8 0 -15 -4 -15 -9 0
-4 -4 -8 -10 -8 -5 0 -10 9 -10 21 0 16 -4 20 -17 15 -15 -5 -15 -4 1 9 11 8
15 15 9 15 -7 0 -20 -8 -29 -17 -15 -16 -17 -16 -12 -2 6 16 -8 39 -24 39 -4
0 -8 -11 -8 -25 0 -14 -4 -25 -10 -25 -5 0 -10 11 -10 24 0 37 -10 55 -26 49
-8 -3 -20 0 -28 6 -7 6 -15 9 -18 6 -9 -9 -88 -13 -88 -4 0 5 -7 9 -16 9 -10
0 -14 6 -10 15 5 14 -11 21 -38 16 -4 -1 -14 3 -21 9 -16 13 -84 10 -82 -4 3
-15 -76 -12 -81 3 -2 6 -13 11 -25 12 -12 0 -16 3 -9 6 39 15 -25 37 -66 22
-15 -6 -21 -5 -17 1 4 6 -5 10 -24 8 -17 -1 -31 -6 -31 -11 0 -4 -4 -6 -8 -3
-5 3 -32 7 -61 10 -47 5 -55 3 -75 -19 -27 -29 -36 -31 -36 -9 0 9 -6 14 -12
11 -7 -2 -21 2 -30 10 -14 13 -18 12 -27 -5z m1388 -551 c-8 -2 -17 -9 -21
-15 -13 -20 -19 2 -7 23 10 16 16 18 27 8 12 -9 12 -12 1 -16z"/>
<path d="M2690 1240 c0 -5 5 -10 10 -10 6 0 10 5 10 10 0 6 -4 10 -10 10 -5 0
-10 -4 -10 -10z"/>
<path d="M4060 255 c0 -8 4 -15 10 -15 5 0 7 7 4 15 -4 8 -8 15 -10 15 -2 0
-4 -7 -4 -15z"/>
</g>
</svg>
